<svg xmlns="http://www.w3.org/2000/svg" width="20" height="20" viewBox="0 0 20 20"><defs><style>.a{fill:#0c3058;}</style></defs><path class="a" d="M-53.929,26.931A9.934,9.934,0,0,0-61,24a9.935,9.935,0,0,0-7.071,2.929A9.934,9.934,0,0,0-71,34a9.934,9.934,0,0,0,2.929,7.071h0A9.934,9.934,0,0,0-61,44a9.935,9.935,0,0,0,7.071-2.929A9.935,9.935,0,0,0-51,34,9.935,9.935,0,0,0-53.929,26.931ZM-61,25.82a8.119,8.119,0,0,1,5.107,1.789l-1.946,1.946a5.451,5.451,0,0,0-1.2-.644A5.43,5.43,0,0,0-61,28.547a5.424,5.424,0,0,0-3.158,1.01l-1.948-1.948A8.12,8.12,0,0,1-61,25.82ZM-57.364,34A3.64,3.64,0,0,1-61,37.638h0A3.64,3.64,0,0,1-64.636,34,3.64,3.64,0,0,1-61,30.366a3.617,3.617,0,0,1,1.307.242A3.66,3.66,0,0,1-57.364,34Zm-11.818,0a8.12,8.12,0,0,1,1.789-5.107l1.948,1.948A5.425,5.425,0,0,0-66.455,34a5.426,5.426,0,0,0,1.01,3.159l-1.948,1.948A8.12,8.12,0,0,1-69.182,34ZM-61,42.184a8.119,8.119,0,0,1-5.107-1.789l1.948-1.948A5.425,5.425,0,0,0-61,39.456h0a5.424,5.424,0,0,0,3.159-1.01l1.948,1.948A8.118,8.118,0,0,1-61,42.184Zm6.393-3.075-1.948-1.948A5.425,5.425,0,0,0-55.545,34a5.423,5.423,0,0,0-.981-3.121l-.028-.039,1.947-1.947A8.12,8.12,0,0,1-52.818,34,8.12,8.12,0,0,1-54.607,39.109Z" transform="translate(71 -24.002)"/></svg>