<svg xmlns="http://www.w3.org/2000/svg" width="20" height="20" viewBox="0 0 20 20"><defs><style>.a{fill:#0c3058;}</style></defs><path class="a" d="M16.889,18.318a6.229,6.229,0,0,0-.63-1.134c-.108-.162-.219-.327-.316-.5-.389-.676-.255-.95.376-2.007l.1-.173a4.7,4.7,0,0,0,.565-2.415,5.7,5.7,0,0,1,.093-1.012c.161-.732,1.708-.927,2.667-1.042A7.892,7.892,0,0,1,20,12a7.982,7.982,0,0,1-3.111,6.318M4.962,15.8a8.262,8.262,0,0,0,2.026.274,4.968,4.968,0,0,0,3.137-1.011c1.716-1.342,1.716-3.058,1.716-4.438a4.757,4.757,0,0,1,.372-2.344,2.917,2.917,0,0,1,1.119-.915,8.518,8.518,0,0,0,.915-.6A4.592,4.592,0,0,0,15.664,4.9,8.045,8.045,0,0,1,18.99,8.119c-1.428.2-3.455.666-3.864,2.533a7.329,7.329,0,0,0-.138,1.37,2.948,2.948,0,0,1-.287,1.466l-.1.168c-.647,1.083-1.379,2.311-.392,4.028.119.208.252.408.383.607a2.218,2.218,0,0,1,.514,1.081A8,8,0,0,1,4.962,15.8M12,4a7.973,7.973,0,0,1,1.787.208,2.621,2.621,0,0,1-.774.98,6.532,6.532,0,0,1-.706.46,4.525,4.525,0,0,0-1.85,1.674,6.523,6.523,0,0,0-.616,3.3c0,1.355-.044,2.156-.948,2.863-1.369,1.073-3.464.474-4.76-.071A7.966,7.966,0,0,1,12,4m0-2A10,10,0,1,0,22,12,10.011,10.011,0,0,0,12,2" transform="translate(-2 -2)"/></svg>