<svg xmlns="http://www.w3.org/2000/svg" width="24.066" height="30.626" viewBox="0 0 24.066 30.626"><defs><style>.a,.b{fill:#0f5dd9;}.a{stroke:#0f5dd9;}</style></defs><g transform="translate(0.5 0.5)"><path class="a" d="M281.153,45.195l-.195-.3c-.534-.813-2.138-1.268-4.768-1.352l-.3-.015c-6.323-.714-6.273-5.964-6.273-6.016V16h23.066V37.509c0,.045.05,5.295-6.271,6.009a2.718,2.718,0,0,0-.3.015c-2.63.085-4.242.539-4.768,1.355ZM270.1,16.5v21.01c0,.2-.032,4.861,5.844,5.527h.262c.976.032,3.828.122,4.948,1.32,1.123-1.2,3.972-1.288,4.951-1.32h.262c5.891-.669,5.846-5.475,5.841-5.522V16.5Z" transform="translate(-269.62 -16)"/><path class="b" d="M323.417,85.157H321.56V83.78h1.857Zm-1.772-.075h1.689V83.86h-1.692Z" transform="translate(-308.599 -66.867)"/><path class="b" d="M324.689,94.279a1.071,1.071,0,0,1-.394-.09v-.077h.022a.858.858,0,0,0,.479.072.19.19,0,0,0,.125-.08.167.167,0,0,0,.02-.125.157.157,0,0,0-.057-.085l-.045-.05a.152.152,0,0,1,.035-.2l.065.047c-.047.065-.042.087-.032.1a.269.269,0,0,0,.035.04.24.24,0,0,1,.047.317.267.267,0,0,1-.175.112Zm1.041-.015a.272.272,0,0,1-.162-.045c-.135-.085-.1-.227-.075-.339a.611.611,0,0,0,.022-.132l-.027-.02.037-.072c.015,0,.072.04.072.077a.562.562,0,0,1-.027.17c-.027.122-.042.2.04.25a.3.3,0,0,0,.192.027h.077a.412.412,0,0,0,.354-.22l.072.035a.482.482,0,0,1-.427.25.316.316,0,0,0-.07,0Zm-1.445-.377h-.215v-.082h.06a.808.808,0,0,0,.319,0,.217.217,0,0,0,.152-.127.4.4,0,0,0,.015-.075c.017-.085.035-.18.127-.22a.212.212,0,0,1,.21.052.225.225,0,0,0,.15.057v.08a.277.277,0,0,1-.2-.067c-.06-.037-.095-.065-.14-.045s-.065.075-.077.16a.758.758,0,0,1-.017.08.282.282,0,0,1-.21.185.785.785,0,0,1-.187.022Zm1.567-.037-.047-.06a.349.349,0,0,0,.067-.25.137.137,0,0,0-.057-.072c-.042-.025-.085,0-.145.015a.337.337,0,0,1-.17.037v-.082a.249.249,0,0,0,.13-.03.227.227,0,0,1,.215,0,.185.185,0,0,1,.1.122.35.35,0,0,1-.035.225h0a.282.282,0,0,0,.152-.055l.052-.042a.221.221,0,0,0,.072-.065l.065.045a.317.317,0,0,1-.092.09l-.045.035a.379.379,0,0,1-.192.075.5.5,0,0,0-.087.015Z" transform="translate(-310.483 -74.067)"/><path class="b" d="M325.542,93.747H322.65V92.21h2.892Zm-2.8-.08h2.745V92.29h-2.745Z" transform="translate(-309.418 -73.193)"/><path class="b" d="M324.551,85.981l-.072-.02a.532.532,0,0,1-.292-.137v.037a1.036,1.036,0,0,0-.5.077l-.047-.077a1.118,1.118,0,0,1,.5-.087h0a.466.466,0,0,1-.07-.282.345.345,0,0,1-.25-.21l-.027.015a.327.327,0,0,0-.2.157l-.075-.027a.4.4,0,0,1,.235-.2.755.755,0,0,0,.077-.037l.06-.035v.072c0,.1.112.165.2.192a.23.23,0,0,1,.1-.12.249.249,0,0,1,.269.025.362.362,0,0,1,.072.444l-.065-.047a.282.282,0,0,0-.067-.339.152.152,0,0,0-.215.025.168.168,0,0,0-.032.075.355.355,0,0,0,.052.25.422.422,0,0,0,.284.155l.072.017Zm-.876-.2h-.02V85.7a.132.132,0,0,0,.125-.06V85.6a.132.132,0,0,0-.132,0l-.037-.072a.2.2,0,0,1,.225.022.1.1,0,0,1,.017.13.2.2,0,0,1-.187.1Zm.709-.115h-.077a.145.145,0,0,0-.032-.095l.065-.045a.207.207,0,0,1,.045.147Z" transform="translate(-310.07 -67.895)"/><g transform="translate(6.66 18.62)"><path class="b" d="M313.58,94.85a.109.109,0,0,1,.025.047.2.2,0,0,1,.125.065h0a.18.18,0,0,1,.085-.047A.3.3,0,0,0,313.58,94.85Z" transform="translate(-309.271 -93.792)"/><path class="b" d="M317.7,95.07c-.045.015-.055.06-.065.127a.473.473,0,0,1-.032.12c-.03.052-.095.037-.145.025h-.035a.04.04,0,0,1,0,.022.37.37,0,0,1-.03.072.359.359,0,0,0,.419,0l.04-.025c.055-.025.1-.045.112-.1a.182.182,0,0,0-.055-.177A.2.2,0,0,0,317.7,95.07Z" transform="translate(-312.13 -93.954)"/><path class="b" d="M296.31,90.62v2.388H306.2V90.62Zm2.578,1.278a.369.369,0,0,0,.075-.065l.065.045a.309.309,0,0,1-.092.087L298.89,92a.359.359,0,0,1-.192.075l-.087.02-.047-.06a.349.349,0,0,0,.067-.25.142.142,0,0,0-.06-.072c-.042-.022-.082,0-.147.02a.342.342,0,0,1-.165.04V91.69a.25.25,0,0,0,.125-.032.217.217,0,0,1,.217,0,.2.2,0,0,1,.1.122.332.332,0,0,1-.035.225h0a.3.3,0,0,0,.152-.055.333.333,0,0,1,.052-.05Zm-2.231.948h-.1V90.909H298.8v.1h-2.153v1.834Zm.232-.16h-.1V91.169h1.9v.1h-1.8v1.412Zm1.09-.334a.272.272,0,0,1-.175.12.59.59,0,0,1-.132,0,1.107,1.107,0,0,1-.4-.09V92.3h.017a.841.841,0,0,0,.5.072.18.18,0,0,0,.122-.08.155.155,0,0,0,.015-.125.215.215,0,0,0-.05-.082.526.526,0,0,1-.047-.057c-.037-.042-.027-.117.03-.2l.065.047c-.025.037-.047.082-.03.1a.3.3,0,0,1,.04.047.249.249,0,0,1,.042.307Zm-.087-.666c-.057-.037-.095-.06-.137-.042s-.067.077-.077.162v.072a.3.3,0,0,1-.22.187.2.2,0,0,1-.18-.027.317.317,0,0,1-.1-.25h.08a.234.234,0,0,0,.07.177.115.115,0,0,0,.112.015.219.219,0,0,0,.157-.127V91.79c.013-.085.027-.19.122-.23a.222.222,0,0,1,.21.052.2.2,0,0,0,.15.052l.012.082a.284.284,0,0,1-.2-.067Zm.749.813h-.065a.427.427,0,0,1-.08,0,.3.3,0,0,1-.165-.042c-.135-.085-.1-.227-.075-.342a.776.776,0,0,0,.025-.132l-.03-.02.035-.072c.017,0,.075.04.075.075a.731.731,0,0,1-.025.167c-.03.125-.042.2.04.25a.314.314,0,0,0,.2.025h.072a.419.419,0,0,0,.359-.222l.07.037a.5.5,0,0,1-.437.267Zm.836.307h-.1V90.715h2.65v.1h-2.563v2Zm.25-.162h-.1V90.964h2.213v.1H299.7v1.575Zm.816-.3a.132.132,0,0,0-.055-.03.2.2,0,0,1-.1-.067.306.306,0,0,0-.065.03l-.057.047a.656.656,0,0,1-.195.132l-.027-.077a.572.572,0,0,0,.172-.117l.06-.047c.02-.015.127-.08.175-.017a.135.135,0,0,0,.065.04.21.21,0,0,1,.082.047Zm.065-.279c-.012-.047-.065-.077-.125-.11a.5.5,0,0,1-.132-.092l-.025-.027v.017a.27.27,0,0,1,.022.125h-.08a.222.222,0,0,0-.017-.09.393.393,0,0,1-.02-.077v-.04h.04a.132.132,0,0,1,.142.05.391.391,0,0,0,.112.077c.07.04.142.077.165.16Zm1.627-.082a.232.232,0,0,1-.152.152l-.035.02a.434.434,0,0,1-.5,0,.711.711,0,0,1-.517.177v-.082c.2,0,.459-.052.524-.25a.25.25,0,0,0,0-.157.34.34,0,0,0-.067-.09.187.187,0,0,0-.232-.02c-.042.025-.057.052-.027.122h0l-.072.035h0a.287.287,0,0,0-.182-.072.13.13,0,0,0-.12.052l-.022.035-.032-.02-.047-.037a.137.137,0,0,0-.077-.045h0a.065.065,0,0,1-.067-.05.047.047,0,0,0,0-.02.373.373,0,0,1-.04-.047.047.047,0,0,0-.047-.032H300.5c-.03-.02-.06-.04-.092-.057-.1-.03-.21-.057-.282.017s-.06.287,0,.474l-.077.025c-.052-.16-.135-.4.018-.556a.339.339,0,0,1,.367-.032c.035.017.067.037.1.057a.142.142,0,0,1,.067.032.377.377,0,0,1,.4.125h0a.417.417,0,0,1,.145.04.14.14,0,0,1,.08-.112.265.265,0,0,1,.327.027.454.454,0,0,1,.085.12.25.25,0,0,1,.02.107.322.322,0,0,1,.047,0,.167.167,0,0,0,.06,0,.34.34,0,0,0,.017-.087.215.215,0,0,1,.12-.2.287.287,0,0,1,.282.067.249.249,0,0,1,.077.25Zm3.823.823h-3.481v-2h3.459Z" transform="translate(-296.31 -90.62)"/></g><path class="b" d="M314.226,68.7c-.035,0-.1.022-.075.075s.1.022.125,0-.045-.035-.05-.067Z" transform="translate(-303.034 -55.55)"/><g transform="translate(5.539 3.812)"><path class="b" d="M316.45,41.65Z" transform="translate(-310.304 -39.061)"/><path class="b" d="M315.16,79.14l.015-.08A.2.2,0,0,0,315.16,79.14Z" transform="translate(-309.336 -67.136)"/><path class="b" d="M332,42.21Z" transform="translate(-321.974 -39.482)"/><path class="b" d="M294.45,37.15Z" transform="translate(-293.794 -35.684)"/><path class="b" d="M303.635,31.367a.978.978,0,0,0-.731.06.459.459,0,0,0-.117.611c.157.162.072.579.107.749a1.163,1.163,0,0,1-.03.394c-.057.08.035.382-.015.447a.354.354,0,0,0-.052.3,1.746,1.746,0,0,0-.05.2,2.831,2.831,0,0,0-.017.324,1.166,1.166,0,0,1-.04.382,5.027,5.027,0,0,1-.175.561c-.065.137.027.2-.132.422,0,0-.065.282-.107.409a3.137,3.137,0,0,0-.334.394s-.195.272-.282.424c0,0-.072.1-.21.327,0,0-.429.172-.5.352-.032.082-.407.2-.666.434a3.244,3.244,0,0,1-.5.2.943.943,0,0,0-.432.13,5.3,5.3,0,0,0-.554.142s-.122.032-.235.057a2.445,2.445,0,0,0-.037-.377.419.419,0,0,0,.027-.192h.017a2.7,2.7,0,0,0,.651-.2,1.217,1.217,0,0,0,.724-.3c.264-.042.277-.162.277-.162a2.129,2.129,0,0,0,.362-.14c.147-.022.289-.317.289-.317.04-.035.192-.2.192-.2.21-.1.384-.479.437-.549a2.745,2.745,0,0,0,.2-.377,4.176,4.176,0,0,0,.3-.836,2.8,2.8,0,0,0,.14-.584c.06-.422.085-.956.085-.956a2.352,2.352,0,0,1,.025-.439,1.514,1.514,0,0,1-.05-.352,1.837,1.837,0,0,1,.2-.843c.157-.25-.1-.526-.394-.544a1,1,0,0,0-.646.2c-.16.08-.357.452-.2.614s.155.5.187.656a4.123,4.123,0,0,1,.05.432.609.609,0,0,0-.065.324,1.28,1.28,0,0,1-.045.25.9.9,0,0,0-.012.284c.025.142.042.3.042.3-.16.04-.08.464-.08.464a2.787,2.787,0,0,0-.294.584,2.743,2.743,0,0,1-.25.479.5.5,0,0,0-.162.092,1.17,1.17,0,0,0-.477.452,1.1,1.1,0,0,0-.407.282,1.028,1.028,0,0,0-.419.17s-.5.267-.584.294a.4.4,0,0,1-.095.02,5.183,5.183,0,0,0-.032-.681,2.6,2.6,0,0,0,1.248-.5c.152-.162.075-.2.192-.237s.249-.4.374-.527a2.246,2.246,0,0,0,.25-.576,2.1,2.1,0,0,0,.18-.789c.155-.2-.04-.519-.04-.519s.04-.364.04-.522A5.051,5.051,0,0,1,300.84,32c.065-.28.08-.44-.192-.539a1.4,1.4,0,0,0-.851-.022c-.152.08-.5.459-.349.624a1.977,1.977,0,0,1,.4.671c.037.162.077.619.077.619-.055.08.025.122.025.2v.15s-.067.524-.177.606-.08.277-.08.277c-.157.04-.25.424-.25.424a3.28,3.28,0,0,1-.344.329.926.926,0,0,1-.549.18l-.152.03v-.309a2.965,2.965,0,0,0,.022-.322c0-.162-.08-.18-.08-.18l.08-.18a.152.152,0,0,0,.08-.12.192.192,0,0,0-.08-.14,2.1,2.1,0,0,0,0-.5,1.561,1.561,0,0,0-.04-.284,1.421,1.421,0,0,0-.03-.561.661.661,0,0,1-.025-.439c.057-.12.277-.484.357-.606s.155-.359-.437-.561a1.085,1.085,0,0,0-1.058.162c-.2.1-.12.4-.12.522s.374.4.374.524-.04.22-.04.342-.022.22.015.277c0,0-.135.08-.135.14s.077.12.12.2-.022.08-.022.08-.115.14-.1.22.04.222.117.25-.065.1,0,.18a.314.314,0,0,0-.077.2.5.5,0,0,0,.137.25s-.12.04-.1.12a.75.75,0,0,0-.06.25,4.326,4.326,0,0,0,.027.5h0a.978.978,0,0,1-.706-.344.639.639,0,0,0-.25-.235s-.08-.382-.25-.424c0,0,.04-.2-.08-.282s-.192-.5-.192-.5a.325.325,0,0,0,.057-.157c0-.08.017-.1-.04-.185a5.061,5.061,0,0,1,.04-.7,2.058,2.058,0,0,1,.389-.681.347.347,0,0,0,0-.5l-.04-.032a2.48,2.48,0,0,0-1.15-.067c-.277.1-.477.3-.317.536a1.8,1.8,0,0,1,.249.786c0,.157.04.522.04.522a.5.5,0,0,0,.04.479,3.242,3.242,0,0,0,.217.908c.117.264.09.5.2.6s.249.419.372.459.04.075.2.237a1.894,1.894,0,0,0,1.19.556.3.3,0,0,0,0,.125.459.459,0,0,1,.08.2c0,.04-.055.145-.082.292a1.142,1.142,0,0,1-.2-.072c-.132-.057-.519-.25-.519-.25a1,1,0,0,0-.422-.152.921.921,0,0,0-.382-.25,1.679,1.679,0,0,0-.249-.294c-.03-.04-.267-.289-.267-.289a3.576,3.576,0,0,1-.344-.5,2.7,2.7,0,0,0-.294-.482s.04-.5-.12-.544a.449.449,0,0,1-.04-.262.888.888,0,0,0,0-.282,1.3,1.3,0,0,1-.05-.25c0-.082.025-.1-.04-.185a4.4,4.4,0,0,1,.03-.574c.032-.162-.087-.619.065-.781a.4.4,0,0,0-.07-.569h0a1.125,1.125,0,0,0-.786-.057c-.279.1-.477.3-.319.536a1.8,1.8,0,0,1,.25.789v.427a2.406,2.406,0,0,1,.017.444s.052.452.112.873a3.1,3.1,0,0,0,.137.584,2.883,2.883,0,0,0,.312.639c.042.052.082.185.2.369.05.07.25.571.454.671l.227.16s.17.312.314.329a1.3,1.3,0,0,0,.347.2.537.537,0,0,0,.374.22.646.646,0,0,0,.5.22,2.682,2.682,0,0,0,.8.222.4.4,0,0,0,.037.132s-.047.307-.055.5c-.142-.017-.377-.072-.377-.072a5.151,5.151,0,0,0-.546-.14,1.018,1.018,0,0,0-.359-.172,2.277,2.277,0,0,1-.442-.22c-.267-.232-.656-.394-.686-.469-.072-.185-.384-.272-.384-.272a2.105,2.105,0,0,0-.4-.452,1.641,1.641,0,0,0-.25-.3,4.764,4.764,0,0,1-.25-.429,2.588,2.588,0,0,1-.085-.409,1.015,1.015,0,0,1-.172-.407c-.09-.22-.237-.559-.237-.559a1.688,1.688,0,0,1-.017-.4.865.865,0,0,1-.117-.265,1.03,1.03,0,0,1,0-.277.19.19,0,0,0-.027-.22c-.052-.065-.025-.162-.08-.25a2.987,2.987,0,0,1-.052-.6c.032-.162-.09-.619.067-.781a.407.407,0,0,0-.07-.566h0a1,1,0,0,0-.721,0,.374.374,0,0,0-.27.459.384.384,0,0,0,.072.142,1.034,1.034,0,0,1,.08.664c0,.162-.012.369-.012.369s.012.3,0,.584c0,0,.03.329.09.749a3.429,3.429,0,0,0,.08.479c.042.162.03.584.12.706a2.676,2.676,0,0,0,.2.369c.05.065.132.531.357.711a1.333,1.333,0,0,0,.364.624s.175.3.25.289c0,0,.175.342.282.364,0,0,.092.342.357.382a.749.749,0,0,0,.432.342.766.766,0,0,0,.5.317s-.085.232.412.232l.052.022a.606.606,0,0,0,.292.122,2.453,2.453,0,0,0,.591.18l.474.055v.546s.25.057.25.2,0,.2.095.222c0,0,.08.057.022.2a.372.372,0,0,0-.065.2.377.377,0,0,0-.2.367H296.8v.432h.25a.223.223,0,0,1,.022.1c0,.067.06.3.017.364s-.117.14-.157.2a1.44,1.44,0,0,0-.566,1.17c-.022.217-.294.277-.549.357H299.9c-.294-.08-.414-.14-.437-.357a1.42,1.42,0,0,0-.564-1.173c-.04-.057-.12-.14-.157-.2s.015-.3.015-.364a.194.194,0,0,1,.022-.1h.249v-.419h-.137a.369.369,0,0,0-.2-.364.384.384,0,0,0-.055-.2c-.067-.145.017-.2.017-.2.095-.025.095-.08.095-.22s.262-.2.262-.2v-.556c.2-.05.477-.13.566-.147a3.988,3.988,0,0,0,.414-.1c.135-.042.117-.122.25-.122.482,0,.5-.167.5-.167a.534.534,0,0,0,.414-.324,1.135,1.135,0,0,0,.589-.382c.222-.035.334-.359.334-.359.107-.022.347-.364.347-.364.08,0,.19-.287.19-.287a1.547,1.547,0,0,0,.369-.749c.227-.177.2-.414.25-.5a1.94,1.94,0,0,0,.19-.5,3.441,3.441,0,0,0,.175-.724,2.92,2.92,0,0,0,.08-.484c.057-.417.092-.749.092-.749a4.669,4.669,0,0,0-.062-.559V32.7a1.023,1.023,0,0,1,.077-.666.429.429,0,0,0-.082-.6A.44.44,0,0,0,303.635,31.367Zm-2,4.442c-.05.092-.135.207-.215.115s-.155-.057-.18-.115.085-.07.107-.15.125.05.2.057S301.661,35.761,301.639,35.808Zm.312-1.41a.19.19,0,0,1-.18,0c-.177-.1.02-.25.07-.387a.477.477,0,0,1,.015-.2c0-.017,0-.052.027-.057a.087.087,0,0,1,.107.025.472.472,0,0,1-.04.624Zm-.464-2.458a2.54,2.54,0,0,0,.329-.06.115.115,0,0,0,.107-.045c.027-.045.065-.14.12-.175a.1.1,0,0,1,.14.045v.015a.427.427,0,0,1,0,.237c-.025.085-.1.157-.125.25a.8.8,0,0,0,0,.25,3.54,3.54,0,0,0,.045.843.185.185,0,0,1-.077.172.749.749,0,0,1-.352.077c-.042,0-.052-.052-.042-.092h0c.027-.022.06-.032.077-.067a.521.521,0,0,0,.03-.137.818.818,0,0,0-.065-.5.13.13,0,0,0,.147-.1c.057-.177.065-.422-.1-.524a1.644,1.644,0,0,0-.265-.067c-.07,0-.035-.092.03-.1Zm-.075,2.687h.035c.01,0,.045.03.04,0a.629.629,0,0,1,.454.122c-.057.157-.04.347-.152.469-.052.052-.172,0-.235-.04s-.065-.112-.017-.132c.115-.057.195-.14.137-.25s-.187.027-.25-.052a.1.1,0,0,1,0-.112Zm-.175.769c.165-.085.342.047.5.1.015,0,.045.04.03.052a.15.15,0,0,1-.18,0c-.1-.065-.22-.052-.314-.115-.015,0-.072-.017-.045-.037Zm-.389.886c.04-.022.1,0,.152-.047l.027-.02c.067,0,.017,0,.057-.03s-.045-.167.05-.18a.337.337,0,0,1,.29.155.15.15,0,0,1,0,.185c-.032.06-.122.055-.175.1s-.032.1-.072.127-.075.04-.08.022-.062-.04-.08-.075-.107-.057-.135-.092-.122-.092-.042-.145Zm-.374.4a.217.217,0,0,1,.107-.052c.055-.022,0-.065,0-.115.017,0,0-.03.017-.035.1-.042.147.1.192.177v.077a.167.167,0,0,1,.052.142.09.09,0,0,1-.04.035c-.115.035-.17-.1-.25-.155H300.5c-.017,0-.052-.045-.03-.067Zm-.307.449c.035-.045.03.035.1,0l.04-.027c.16,0,.05-.13.08-.25.092.1.2.227.147.352-.032.082-.152.082-.232.112s-.2-.127-.132-.21Zm-5.073-5.075a.117.117,0,0,1,.02-.165.09.09,0,0,1,.037-.02,1,1,0,0,1,.566-.017.848.848,0,0,1,.175.027.167.167,0,0,1,.137.19V32.1c-.055.132-.16.237-.22.369-.072.172.025.364,0,.554a.4.4,0,0,1-.317.342c-.055,0-.117,0-.145-.04-.115-.192.152-.215.22-.342.017-.035.022-.092,0-.11a2.14,2.14,0,0,1-.21-.327c-.065-.11.03-.25-.045-.334s-.15-.087-.2-.152Zm.095,1.607v-.05a.933.933,0,0,1,.352-.03h-.08c.125.017.249-.04.367.03.012,0,.012.04,0,.05-.09.1-.215.025-.334.052s-.215.052-.3-.052Zm.549.487c0,.087-.17.1-.25.115V34.2c.107,0,.25-.162.264-.04Zm-.225.474a.06.06,0,0,1-.057,0h0c0-.05-.037-.092,0-.137a.163.163,0,0,1,.095-.06.831.831,0,0,1,.407-.017c.052,0,.12.052.072.082-.152.1-.357-.032-.5.127Zm.344.561c-.04,0-.057.065-.075.057-.06-.025,0-.067,0-.122.035,0,.03-.08.065-.07a.2.2,0,0,1,.17-.23.212.212,0,0,1,.08,0,.112.112,0,0,1,.08.14.412.412,0,0,1-.319.24Zm.207.3c-.045-.057.02-.145.087-.2s.14-.14.232-.07c.015,0,0,.06,0,.092-.027.1-.142.087-.2.157A.1.1,0,0,1,296.064,35.484Zm1.248.826h0a1.56,1.56,0,0,1-.781-.21c-.187-.092-.394-.249-.277-.459.05-.092.112.065.165.14.212.327.594.307.906.469a.478.478,0,0,0,0,.06Zm-3.686-4.294a.152.152,0,0,1,.04-.167h.027a3.93,3.93,0,0,0,.454-.035c.025,0,.12.052.137.052a1.765,1.765,0,0,0-.057.394,2.274,2.274,0,0,0,.017.624,4.776,4.776,0,0,1-.017.5h-.017c-.022.127,0,0-.065.115a.085.085,0,0,1-.1.03.132.132,0,0,1-.08-.145c.065-.25.112-.232.085-.484a.37.37,0,0,0-.142-.25.267.267,0,0,1-.065-.065c-.057-.127,0-.279-.05-.4-.03-.08-.122-.11-.162-.18Zm.4,1.747c-.1.025-.227.052-.312-.052v-.052a.883.883,0,0,1,.352-.027h-.08c.125.017.25-.04.374.027a.065.065,0,0,1,0,.052c-.087.1-.217.025-.332.052Zm.085.619c.1-.027.085-.145.132-.19.085-.087.147.065.162.145.035.16-.145.2-.277.15-.03-.015-.067-.087-.015-.1Zm.25.931a.07.07,0,0,1-.1-.025h0c0-.035.015-.075.032-.065.06,0,.122.042.077.1Zm-.072.342c-.04.017-.08-.017-.112-.04s0-.04,0-.052a1.134,1.134,0,0,1,.232-.1.072.072,0,0,1,.04,0c.07.1-.077.162-.157.19Zm.12.377c-.022,0-.08-.042-.052-.087s.085-.04.132-.065v-.035a.152.152,0,1,1-.077.187Zm3.96,2.662a.13.13,0,0,1-.033.015.77.77,0,0,0-.192.015.418.418,0,0,1-.08-.022c-.137-.052-.115-.25-.17-.384,0-.04-.067-.055-.1-.075-.095-.045-.22-.045-.289-.15.03,0,.05.017.08.017a6.488,6.488,0,0,0,.881.047c-.022.175.1.429-.1.536Zm.17-.923a.748.748,0,0,0,.25-.042c.095-.032.187-.045.277-.085a6.4,6.4,0,0,0,.789-.419c.04,0,.227.21.177.25a8.711,8.711,0,0,1-.873.379,1.607,1.607,0,0,1-.611.137c-.554.032-.225-.02-.749-.1.157-.192.749-.077.749-.12Zm1.637-2.371a.087.087,0,0,1-.125.015.02.02,0,0,1-.017-.015.1.1,0,0,1-.027-.057c0-.03-.04-.067-.035-.072.087-.075.192-.08.275-.167.07.117,0,.21-.067.3Zm.1-.566c-.047-.017-.147-.065-.217-.1s0-.075.025-.085c.072-.067.157-.052.2-.14s.017-.15.075-.167c.065.045.18.017.18.08,0,.162-.125.462-.262.412Zm.344-.656c-.022,0-.032.017-.04.017-.12,0-.215-.087-.332-.1-.017,0-.085,0-.06-.052s.132-.08.187-.127.182.03.192.145a.4.4,0,0,1,.047.047c.012.017,0,.047,0,.077Zm.085-.579c.035.075,0,.25-.05.25-.18-.067-.432-.112-.367-.192a2.29,2.29,0,0,0,.292.017c.037-.055.077-.17.127-.072Zm-.871-1.475a.082.082,0,0,1,0-.115.085.085,0,0,1,.03-.015c.25-.052.482,0,.724-.04.09,0,.065.057.065.067,0,.152-.17.307-.09.462.122.25.052.5.107.749a.25.25,0,0,1-.067.207c-.122.122-.322.057-.452-.04-.065-.047-.017-.122.065-.14a1.048,1.048,0,0,0,.155-.017.3.3,0,0,0,.107-.347c-.03-.1-.155-.1-.249-.087.09-.032.22-.16.13-.225s-.17-.057-.235-.11-.042-.11-.08-.162-.142-.11-.2-.185Zm-.432,3.424c.05-.017.125,0,.165-.012a1.385,1.385,0,0,0,.16-.16c.065-.067.175.017.22.11a.127.127,0,0,1-.022.13c-.04.047-.065.117-.112.145a1.574,1.574,0,0,1-.142.075c-.142.06-.262-.1-.294-.23a.062.062,0,0,1,.032-.055Zm-.931.626a2.77,2.77,0,0,0,.372-.14c.065-.035.14-.1.207-.132s.1-.1.17-.075c.1.045.132.2.067.25a1.879,1.879,0,0,1-.776.319h0c.04,0-.831.2-.886-.155a1.971,1.971,0,0,0,.861-.057Zm-.362-1.684c.085-.087-.05-.145,0-.187.12-.1.225.2.165.289-.1.145-.307.082-.472.065-.05,0-.09-.1-.04-.115a1.375,1.375,0,0,1,.349-.017.213.213,0,0,1,0-.032ZM298.24,34a1.747,1.747,0,0,1-.591,0c-.015,0-.062-.075-.032-.1a.449.449,0,0,1,.357-.047c.112,0,.314-.022.269.142Zm-.3,1.128a.554.554,0,0,1,.052-.3c.027-.04.112-.045.165-.04s.05.065.05.095c.015.195.107.422,0,.559s-.4.08-.606.03c-.067-.017-.085-.15-.035-.175a3.342,3.342,0,0,0,.389-.17Zm-.487-3.147c-.015,0-.065-.045-.037-.087h.072c.165-.05.22.027.357-.025.05-.025.075-.087.135-.087,0-.052.052-.057.057-.1a.566.566,0,0,0-.018-.2.427.427,0,0,1,.392.474.251.251,0,0,1,0,.062.534.534,0,0,1-.155.222.641.641,0,0,0-.13.334c-.065.277.14.519.1.8a.419.419,0,0,1-.115.25.15.15,0,0,1-.17,0c-.115-.05-.272.03-.342-.13a.444.444,0,0,0,.369-.264.823.823,0,0,0,0-.5c-.05-.21.03-.434-.082-.591-.087-.115-.294-.1-.444-.165Zm-.055,4.6c.017-.017.065,0,.09,0a.167.167,0,0,1,.06,0c.14,0,.274.02.334.02h.072a.734.734,0,0,0,.439-.025,1.14,1.14,0,0,1,0,.519.217.217,0,0,1-.085.125h-.319c-.157-.142-.182-.392-.372-.514a.561.561,0,0,0-.17-.04c-.025,0-.09-.03-.055-.065Zm-2.458,0s-.055,0-.062-.047a.147.147,0,0,1,.107-.175h.03a.135.135,0,0,0-.04-.025c.077-.017.162-.075.217-.05s-.162.342-.25.3Zm.579.25s-.04.035-.047.045a.277.277,0,0,1-.145.187c-.067.035-.137-.07-.115-.145a.294.294,0,0,1,.057-.067c.1-.08.192-.289.307-.167.02.027-.037.1-.055.15Zm.072.382c-.022-.067.03-.1.09-.115h-.055c.107-.1.192-.3.349-.284a2.554,2.554,0,0,1-.227.514c-.057.085-.13-.037-.152-.112Zm1.727.639a3.194,3.194,0,0,1-1.313-.384c-.037-.017-.107-.077-.095-.127s.09-.067.135-.042a2.762,2.762,0,0,0,1.16.459h.107c.18.032.125.05.125.065s-.042.045-.115.022Zm-5.105-4.464c.215-.132.165-.429.237-.644h.017c.022-.042.047-.085.072-.125.082-.132,0-.25-.065-.369s-.152-.082-.2-.152.035-.125.08-.137a.729.729,0,0,0,.3-.207c.037-.035.08.05.065.107v-.02a.973.973,0,0,0-.057.422,4.707,4.707,0,0,1-.037,1.248c-.127.027-.4.107-.407-.117Zm.177.971c.05-.075.162-.115.25-.185s.045-.25.13-.342c.017-.027.047.017.075.012a1.329,1.329,0,0,1-.017.5c-.042.085-.262.122-.249.127l-.075-.017c.022,0-.152,0-.1-.092Zm.175,1.155c.04,0,.032-.07.08-.04,0-.15.112-.1.135-.185s-.055-.127-.112-.162c0,0,0-.03.017-.035a.155.155,0,0,1,.152.04c.017.025.057.042.045.082.075,0,.067.08.085.12a.274.274,0,0,1-.187.394.208.208,0,0,0-.015-.052c-.082-.055-.215-.027-.2-.16Zm.157.749c.017-.017,0-.047,0-.057.165-.1.339-.152.5-.25.027-.017.085-.035.112,0a.087.087,0,0,1-.022.1c-.145.162-.4.342-.6.2Zm.419.721a.249.249,0,0,1-.117-.08c-.03-.047,0-.082.055-.095a.841.841,0,0,1,.177,0c.057,0,.072-.057.125-.087a.419.419,0,0,1,.152-.067c0,.022.035.035.017.057-.117.14-.225.342-.407.284Zm.147.272c-.04-.057.08-.1.137-.127s.17-.1.262-.145a.3.3,0,0,1-.045.18c-.04.075-.11.1-.177.155s-.14-.012-.175-.06Zm.736.422c-.065.035-.065.152-.142.185s-.085-.055-.13-.1,0-.032,0-.057c-.075.025-.12-.022-.155-.082s.012-.075.042-.092.135,0,.17-.05v-.087c0-.01.115-.057.142,0s.107.095.16.145a.09.09,0,0,1,0,.087.285.285,0,0,1-.1.06Zm.369.666a.284.284,0,0,1-.25-.175c-.022-.052,0-.085.05-.127s0-.057,0-.092.045,0,.055-.04a.221.221,0,0,1,.035-.087.1.1,0,0,1,.14,0,.055.055,0,0,1,.017.022c.03.04-.037.12.013.142.145.06.22-.137.332-.22.035-.022.1.052.067.1-.142.187-.2.467-.464.487Zm.576.387c0,.052-.085.022-.12,0-.1-.035-.25-.112-.25-.232a.08.08,0,0,0,.067-.067c.022-.12.065-.25.165-.25.152,0,.429-.23.412,0s-.3.282-.284.524Zm.571.394a2.783,2.783,0,0,1-.292-.19l-.027-.025c-.017-.035-.1-.042-.067-.07.085-.112.085-.25.192-.342,0,0,.052-.045.067-.022.085.1.09.225.162.334a.622.622,0,0,0,.137.117,3.283,3.283,0,0,0,1,.352c.177.037.354,0,.534.027.1.022.324,0,.337.1s-.359.032-.364.057a1.262,1.262,0,0,1-.274,0,4.629,4.629,0,0,1-1.4-.339Zm2.113,4.162c0,.017-.027.04-.035.032-.057-.015-.122-.015-.175-.027-.092-.027-.035-.2-.04-.307a.07.07,0,0,1,.04-.057.132.132,0,0,1,.185.02h0a.33.33,0,0,1,.022.25.307.307,0,0,1,0,.082Zm.417.282c-.13,0-.135-.14-.2-.22-.015-.017-.05.03-.065-.022a.788.788,0,0,1,.012-.417.11.11,0,0,1,.147-.057.112.112,0,0,1,.05.04c.125.207.035.452.057.679Zm.394.157a1.821,1.821,0,0,0-.22-.2v.065a3.979,3.979,0,0,1,0-.624.132.132,0,0,1,.092-.115c.08-.025.175,0,.187.082.057.3.072.541.125.813a.25.25,0,0,1-.165-.02Zm.449-1.075c.055,0,.085.065.112.122a5.1,5.1,0,0,1,.379,1.018,1.715,1.715,0,0,1-.5.032.115.115,0,0,1-.075-.092c-.05-.207-.115-.514-.192-.843a.287.287,0,0,1,.1-.207.227.227,0,0,1,.17-.03Zm-.137-.225c-.135-.025-.317.065-.407-.047-.032-.04.065-.1.027-.152s-.1-.072-.117-.032,0,.185-.03.25a.166.166,0,0,1-.262-.052c.09-.025.2-.047.165-.157a.22.22,0,0,0-.227-.1.537.537,0,0,1-.03.294c-.037.077-.135,0-.2,0v-.1c.065.017.14,0,.112-.1s-.12-.25-.22-.162,0,.284-.12.377a.142.142,0,0,1-.187-.035.085.085,0,0,1,0-.05c.042-.052.107-.03.155-.052.085-.047.047-.175.047-.25s-.095-.082-.14-.052-.072.022-.065.075a.25.25,0,0,1,.015-.317c.147-.1.359-.04.539,0a7.037,7.037,0,0,0,.858.042,1.388,1.388,0,0,0,.092.621Zm0-1.088c.142.022.3.172.222.312-.025.042-.115-.017-.18-.025s-.195.057-.3.067c-.027,0-.037-.03-.055-.057a.082.082,0,0,0-.025-.027c-.1-.09-.192-.232-.3-.165a.264.264,0,0,1-.225.035c-.017,0-.04-.052-.017-.07s.067-.127.137-.145a.606.606,0,0,1,.474.1c.085.052.187-.045.274-.027Zm-.06-1.118c-.017.065-.04.157-.112.16-.12,0-.057.22-.125.25a1.06,1.06,0,0,1-.521.057.219.219,0,0,1,0-.057.167.167,0,0,0,.075-.227v-.015c-.017-.042-.1-.035-.122,0-.06.092,0,.232-.06.307-.025.035-.1.022-.165,0s-.09-.067-.05-.1.09,0,.122-.017,0-.057,0-.092c0,0-.065-.14-.152-.117-.047,0-.075.077-.125.092a.18.18,0,0,0-.155-.155c0,.07-.09.047-.11.027-.067-.04.015-.11,0-.175.352-.057.706.042,1.061-.045.017,0,.03-.052.047-.07a.219.219,0,0,1,.135-.08c0-.067.045-.075.08-.1a.107.107,0,0,1,.125.025.379.379,0,0,1,.047.327Zm1.931-1.407c-.027.21-.277.25-.454.307-.434.14-.866.232-1.317.347l-.2.042c-.172.042-.674.075-.7-.032s.681-.077.676-.1a5.781,5.781,0,0,0,.841-.25,3.014,3.014,0,0,0,.419-.237c.032-.017.085,0,.112-.027a1.248,1.248,0,0,1,.459-.21c.1-.042.18.095.17.152Zm.469-.185c-.027.087-.095.192-.187.157-.18-.067-.225-.25-.339-.417,0,0,0-.03.025-.035a.1.1,0,0,1,.055,0c.047.03.04.11.12.122s.047-.1.085-.132.055.047.107.067a.2.2,0,0,1,.137.25Zm.5-.377h-.032c0,.1-.065.125-.082.227,0,.052-.107.03-.135,0a2.929,2.929,0,0,1-.347-.474h.112c.132.127.29.035.414.095a.115.115,0,0,1,.072.142Zm.379-.339c-.017.08-.125.155-.2.11-.12-.082-.344-.145-.277-.277.027-.06.147.037.25,0l.025-.05V37.64c-.015-.057-.032-.05-.05-.1s.065-.087.085-.07a.5.5,0,0,1,.177.452Zm.372-.377c-.037.047-.065.177-.14.145s-.16-.167-.25-.25c-.022-.022.022-.047.035-.052.072-.017.157.065.21-.012s-.047-.15,0-.207.062,0,.095.012v-.017c.085.052.2.127.2.22s-.09.115-.147.167Zm.382-.554c-.013,0-.018.065-.05.027-.035.065,0,.162-.08.22-.017-.04-.052-.057-.067-.1a.19.19,0,0,0-.13-.092c-.067-.017-.075-.11-.135-.152.095-.12.3-.065.447-.035.062,0,.055.1.017.13Zm.215-.619a.232.232,0,0,1-.317.08h0c-.032-.022-.1-.03-.1-.092v-.075c.072-.077.187.022.262-.047a.06.06,0,0,0,0-.057c-.05-.06-.207-.14-.125-.175.167-.062.392.187.284.372Zm.357-.527c-.04.1-.187.14-.334.1-.085-.027-.155-.11-.1-.16s.17-.1.12-.185c-.017-.03-.012-.077-.052-.087s-.087.027-.12-.025a.084.084,0,0,1,0-.05.459.459,0,0,1,.467.162.249.249,0,0,1,.025.25Zm.17-.878a1.06,1.06,0,0,0-.175.324.077.077,0,0,1-.1.035h0c-.1-.077-.25-.052-.317-.14,0-.017-.04-.065-.025-.07.12-.022.25.03.342-.04s.062-.18.137-.25c.015-.012.042,0,.072,0h.057c.052.032.03.1.012.13Zm.035-.469c-.147,0-.279-.1-.437-.1-.035,0-.107-.022-.1-.085,0-.012.017-.035.025-.035.117-.065.237.017.367,0,.092-.017.135.057.17.122s0,.11-.025.11Zm.05-.357c-.022.04-.072-.017-.085-.025-.1-.085-.232-.057-.342-.13-.045-.03-.095-.117-.04-.122.125,0,.2-.087.334-.1a.126.126,0,0,0-.022.04c.072-.035.09-.11.125-.18a.045.045,0,0,1,.057-.02.06.06,0,0,1,.022.02.8.8,0,0,1-.05.512Zm.137-2.2c-.085.25-.284.536-.182.821.065.162.165.364.065.5a.249.249,0,0,1-.344.055h0c-.035-.017-.03-.067-.017-.092.065-.122.227-.2.16-.364s-.035-.364-.092-.517-.282-.25-.327-.414c-.067-.3.362-.25.574-.222.092.012.217.1.172.227Z" transform="translate(-291.819 -31.276)"/></g><path class="b" d="M292.546,103.386v-1.2c.05-.25.075-.5.21-.6.057-.04.067-.157-.08-.137a2.049,2.049,0,0,1-.816-.052l-.13.694s.412-.04.08.25a2.813,2.813,0,0,1,.022.459,6.738,6.738,0,0,1-.08,1.362h1.669c.08.017.1.06.1.2s.1.484-.175.584a1.5,1.5,0,0,1-.549.1l-.115.684a6.359,6.359,0,0,0,.946-.382c.192-.14.472-.25.472-.656a4.694,4.694,0,0,1,.095-1.308h-1.647Zm1.37,1.15c0,.354,0,.444-.107.524a4.593,4.593,0,0,1-.771.377l.065-.215c.1-.035.25-.1.5-.2s.137-.786.137-.908-.017-.15-.08-.165h-1.522a5.764,5.764,0,0,0,.065-1.115c0-.307.018-.666.018-.666.282-.25-.147-.18-.147-.18l-.025-.437c.03.072.352.065.414.05.125-.017.117.087.065.122-.112.075-.072.157-.112.377-.012.047-.022,1.55-.022,1.55v.087h1.567c-.1.125-.05.444-.05.808Z" transform="translate(-286.213 -80.09)"/><path class="b" d="M305.2,110.612c-.082-.04,0-.177,0-.177a2.752,2.752,0,0,0,.25-.18.329.329,0,0,0,.107-.25V109.3c0-.1.023-.14-.095-.16a5.1,5.1,0,0,0-.517-.02.841.841,0,0,1-.235-.04c-.022.14-.249.749-.249.749a.941.941,0,0,0,.272.065c.1.017.04.017.08.08a1.086,1.086,0,0,1,0,.359,11.068,11.068,0,0,1-1.432-1.12c-.08-.065-.157-.042-.18.017-.095.165-.2.327-.312.484,0,0,.12.559.137.8a6.526,6.526,0,0,1-.12,1h1l.25-.656h-.544V110.4c0-.08.04-.08.04-.08s1.417,1.08,1.517,1.145.115.017.115.017l.3-.626a3.706,3.706,0,0,1-.382-.247Zm-.249-1.248a.632.632,0,0,0,.18.03h.155c.09,0,.08.122.08.2v.145a.679.679,0,0,1-.047.307,1.34,1.34,0,0,1-.187.145,2.06,2.06,0,0,0,.025-.429c-.033-.045,0-.045-.065-.065s-.2.022-.25,0a1.74,1.74,0,0,0,.1-.317Zm.249,1.829a.6.6,0,0,0-.117-.092c-.082-.047-1.632-1.15-1.632-1.15v.177c0,.062.017.868.017.868h.447l-.137.225h-.531a6.677,6.677,0,0,0,.057-.706c-.017-.207-.065-.749-.065-.749a.627.627,0,0,0,.087-.13c.02-.052.082-.07.137-.017a6.57,6.57,0,0,0,1.887,1.317Z" transform="translate(-294.588 -85.854)"/><path class="b" d="M316.4,108.882h-1.285a.546.546,0,0,1-.329-.172l-.215.749a.227.227,0,0,0,.25.207h1.063v1.557s.6-.25.629-.25.05-.03.05-.162v-1.717S316.586,108.882,316.4,108.882Zm-.04.442v1.29c0,.1-.018.115-.042.125a1.2,1.2,0,0,1-.185.052v-1.362h-.956a.182.182,0,0,1-.19-.172h0l.047-.2a.412.412,0,0,0,.262.14h.938a.125.125,0,0,1,.135.11Z" transform="translate(-303.354 -85.576)"/><path class="b" d="M326.345,109.047l-.2.689.215.042a1.4,1.4,0,0,1-.015.422.451.451,0,0,1-.19.25,5.046,5.046,0,0,1-.546.115s.4-1.445.407-1.522H325.3l-.237.651.225.065a9.426,9.426,0,0,1-.389.873.918.918,0,0,1-.1-.789c.057-.232.127-.462.207-.686.04-.067-.072-.11-.147-.11a1.193,1.193,0,0,1-.649-.117l-.282.669a.377.377,0,0,0,.262.172c.192.04.035.192,0,.22a.294.294,0,0,0-.077.22c0,.1-.025,1.175-.025,1.175s1.981-.274,2.124-.3c.1-.017.1-.042.16-.092s.372-.442.4-.482.027-.052.04-.15.08-1.313.08-1.313h-.551Zm.357,1.128a.873.873,0,0,1-.062.264c-.022.035-.324.317-.369.359a.23.23,0,0,1-.13.065c-.115.022-1.767.25-1.767.25s.017-.861.017-.943a.469.469,0,0,1,.05-.225c.035-.025.21-.265.1-.289a.935.935,0,0,1-.232-.075l.135-.3a2.429,2.429,0,0,1,.25.052c.062,0,.152.027.117.085s-.117.4-.162.556a2.964,2.964,0,0,0,0,.853c.027.065.474,0,.474,0,.057-.055.5-1.2.5-1.2h-.267l.12-.25h.357c0,.065-.437,1.427-.437,1.427s.771-.1.843-.14a.953.953,0,0,0,.312-.327,4.939,4.939,0,0,0,.065-.636h-.192l.09-.327h.267s-.075.716-.09.8Z" transform="translate(-310.378 -85.741)"/><path class="b" d="M337.6,108.715a4.348,4.348,0,0,1-.5.022,1.353,1.353,0,0,1-.277-.1l-.317.9c.08.08.477.04.477.04l-.08.656.649-.177a3.1,3.1,0,0,1,.195-1.043C337.8,108.82,337.723,108.715,337.6,108.715Zm-.142.566a2.7,2.7,0,0,0-.095.579l-.16.045.06-.5a.511.511,0,0,1-.334,0l.112-.3a.824.824,0,0,1,.175,0,.818.818,0,0,0,.175,0c.085,0,.115,0,.067.15Z" transform="translate(-319.819 -85.524)"/><path class="b" d="M279.447,44s-1.05-.272-1.13-.831a1.42,1.42,0,0,1,.147-.764s.3-.065.332-.185a.282.282,0,0,0-.157-.352c-.165-.065-.232-.035-.342.1a.207.207,0,0,0-.045.227s.195.25-.142.5a4.013,4.013,0,0,1-.207-1.013,8.567,8.567,0,0,1,.639-1.445c.152-.25.487-.749.487-.749a3.927,3.927,0,0,1-.749,2.089,2.887,2.887,0,0,0,1.12-2.313,6.022,6.022,0,0,0-.125-.816,15.2,15.2,0,0,0-.928,1.417A7.73,7.73,0,0,0,277.888,41s-.027-.9,0-1a3.277,3.277,0,0,1,.437-.626.25.25,0,0,0,.25-.11c.065-.127.085-.327-.077-.394s-.347.117-.347.117a.454.454,0,0,0,.015.324l-.269.25v-.908a9.185,9.185,0,0,1,.639-1.365c.152-.25.5-.749.5-.749a3.97,3.97,0,0,1-.749,2.089,2.832,2.832,0,0,0,1.063-2.348c0-.22-.065-.776-.065-.776a11.73,11.73,0,0,0-.968,1.332,7.056,7.056,0,0,0-.419,1.115s-.027-.811,0-.913a3.081,3.081,0,0,1,.437-.624.262.262,0,0,0,.25-.11c.065-.13.085-.329-.08-.394s-.344.115-.344.115a.447.447,0,0,0,.015.322l-.269.25v-.933a9.162,9.162,0,0,1,.641-1.362c.152-.25.5-.749.5-.749a3.937,3.937,0,0,1-.749,2.091,2.873,2.873,0,0,0,1.123-2.308,6.5,6.5,0,0,0-.127-.816,11.26,11.26,0,0,0-.928,1.315,7.955,7.955,0,0,0-.459,1.155s-.027-.808,0-.913a3.182,3.182,0,0,1,.437-.624.262.262,0,0,0,.249-.11c.067-.127.085-.329-.077-.394s-.347.115-.347.115a.454.454,0,0,0,.017.324l-.272.25v-.791a6.6,6.6,0,0,1,.584-1.382c.155-.25.369-.614.369-.614a3.244,3.244,0,0,1-.611,1.861,2.191,2.191,0,0,0,1-2c0-.225-.03-.958-.03-.958a8.381,8.381,0,0,0-.946,1.213,7.858,7.858,0,0,0-.392,1.2s-.027-.789,0-.9a4.4,4.4,0,0,1,.277-.566s.195.065.267-.047a.25.25,0,1,0-.387-.317.347.347,0,0,0,0,.282l-.17.207v-.646a4.675,4.675,0,0,1,.5-1.387l.447-.734a2.954,2.954,0,0,1-.574,1.787,2.924,2.924,0,0,0,1.065-2.071c0-.22-.065-.883-.065-.883a9.384,9.384,0,0,0-1.048,1.322,3.676,3.676,0,0,0-.339,1.278s-.027-.888,0-1a3.848,3.848,0,0,1,.215-.487.18.18,0,0,0,.245-.085.25.25,0,0,0-.11-.329h0c-.157-.085-.227.035-.227.035a.482.482,0,0,0,.012.324l-.13.11-.012-.656a6.639,6.639,0,0,1,.577-1.342c.152-.25.544-.749.544-.749a2.7,2.7,0,0,1-.589,1.747,1.916,1.916,0,0,0,.933-1.849,2.531,2.531,0,0,0-.065-.764,6.769,6.769,0,0,0-1.1,1.248,9.175,9.175,0,0,0-.449,1.347V23.024a1.747,1.747,0,0,1,.334,1.023,9.262,9.262,0,0,1,0,1.233,6.583,6.583,0,0,0,.249-1.14,1.981,1.981,0,0,0-.332-1.155,6.5,6.5,0,0,1-.277-.734A2.359,2.359,0,0,1,277.4,23a2.511,2.511,0,0,0-.294,1.185,5.537,5.537,0,0,0,.442,1.567c.045.1.018,1.4.018,1.4a3.551,3.551,0,0,1-.8-.813,3.515,3.515,0,0,1-.359-1.14s.267.314.417.482a7.434,7.434,0,0,1,.539.816c.077-.886-1.248-2.019-1.248-2.019a4.656,4.656,0,0,0,.357,2.226,2.994,2.994,0,0,0,1.138.846v.559l-.2-.127a.442.442,0,0,0-.017-.324s-.2-.16-.357-.08-.112.282-.04.4.262.08.262.08a1.6,1.6,0,0,1,.334.412c.04.1.017,1.527.017,1.527a3.087,3.087,0,0,1-.749-.868,4.271,4.271,0,0,1-.412-1.063s.317.262.474.422a5.015,5.015,0,0,1,.449.749c.077-.886-1.248-2.151-1.248-2.151a5.09,5.09,0,0,0,.357,2.231,2.745,2.745,0,0,0,1.138.953v.549l-.3-.225a.484.484,0,0,0-.017-.324s-.2-.157-.354-.082-.12.284-.042.407a.25.25,0,0,0,.25.08,3.391,3.391,0,0,1,.437.561c.04.1.017,1.525.017,1.525a3.1,3.1,0,0,1-.749-.861,4.478,4.478,0,0,1-.414-1.063,5.531,5.531,0,0,1,.477.417,4.988,4.988,0,0,1,.447.749c.08-.886-1.248-2.151-1.248-2.151a5.085,5.085,0,0,0,.357,2.231,2.745,2.745,0,0,0,1.148.961v.584l-.307-.212a.484.484,0,0,0-.017-.324s-.2-.157-.354-.075-.12.277-.042.4a.25.25,0,0,0,.25.08,3.407,3.407,0,0,1,.439.561c.04.1.015,1.527.015,1.527a3.211,3.211,0,0,1-.749-.861,4.448,4.448,0,0,1-.412-1.063,5.4,5.4,0,0,1,.477.422,5.077,5.077,0,0,1,.447.749c.077-.886-1.248-2.151-1.248-2.151a5.085,5.085,0,0,0,.357,2.231,2.793,2.793,0,0,0,1.138.966v.749l-.3-.247a.477.477,0,0,0-.017-.322s-.2-.157-.354-.082-.12.282-.042.4a.25.25,0,0,0,.25.082,3.642,3.642,0,0,1,.439.559c.037.1.015,1.53.015,1.53a3.22,3.22,0,0,1-.749-.863,4.367,4.367,0,0,1-.412-1.063s.317.264.477.417a4.987,4.987,0,0,1,.447.749c.077-.886-1.248-2.151-1.248-2.151a5.09,5.09,0,0,0,.357,2.231,2.638,2.638,0,0,0,1.138.943v.749l-.3-.23a.462.462,0,0,0-.017-.317s-.2-.162-.354-.082-.12.277-.042.4a.25.25,0,0,0,.25.08,3.789,3.789,0,0,1,.439.561c.04.1.017,1.527.017,1.527a3.168,3.168,0,0,1-.749-.861,4.273,4.273,0,0,1-.414-1.063,5.407,5.407,0,0,1,.477.422,5.077,5.077,0,0,1,.447.749c.077-.878-1.248-2.146-1.248-2.146a5.1,5.1,0,0,0,.357,2.226,2.782,2.782,0,0,0,1.18.966c.042.4.12.928.12.928-.357-.2-.277-.367-.277-.367a.31.31,0,0,0-.08-.282c-.112-.115-.232-.2-.394-.115s-.077.235-.037.357.237.2.237.2a6.015,6.015,0,0,0,.684.6,2.812,2.812,0,0,0,1.789,1.769Zm-.162.267c-.017.122-.04.145-.16.067a1.6,1.6,0,0,1-.527-.546,3.494,3.494,0,0,0,.569.364C279.285,44.169,279.313,44.146,279.285,44.263Z" transform="translate(-274.477 -20.69)"/><path class="b" d="M344.864,29.312a5.158,5.158,0,0,0,.349-2.231s-1.337,1.265-1.248,2.148a4.639,4.639,0,0,1,.452-.749c.16-.162.472-.422.472-.422a4.293,4.293,0,0,1-.414,1.065,3.1,3.1,0,0,1-.749.866s-.017-1.427.022-1.527a1.545,1.545,0,0,1,.332-.409s.177.04.25-.08.12-.324-.042-.407-.354.082-.354.082a.462.462,0,0,0-.018.322l-.2.127v-.556a3.009,3.009,0,0,0,1.14-.846,4.683,4.683,0,0,0,.352-2.226s-1.337,1.135-1.248,2.019a7.928,7.928,0,0,1,.532-.808c.16-.162.424-.469.424-.469a3.52,3.52,0,0,1-.349,1.14,3.929,3.929,0,0,1-.811.816,13.2,13.2,0,0,1,.022-1.4,6.007,6.007,0,0,0,.452-1.58A2.653,2.653,0,0,0,343.938,23a2.245,2.245,0,0,1-.275-.749,6.51,6.51,0,0,1-.277.734,2.066,2.066,0,0,0-.334,1.155,6.592,6.592,0,0,0,.249,1.14,8.116,8.116,0,0,1,0-1.233,1.7,1.7,0,0,1,.334-1.023l-.012,4.025a9.2,9.2,0,0,0-.452-1.347,6.872,6.872,0,0,0-1.105-1.248,2.531,2.531,0,0,0-.065.764,1.926,1.926,0,0,0,.968,1.827,2.723,2.723,0,0,1-.591-1.747s.394.5.552.749a6.487,6.487,0,0,1,.571,1.34v.656l-.142-.115a.441.441,0,0,0,0-.324s-.065-.122-.225-.035a.25.25,0,0,0-.122.334h0a.185.185,0,0,0,.212.085,3.13,3.13,0,0,1,.215.5c.027.1,0,1,0,1a3.518,3.518,0,0,0-.339-1.278,9.194,9.194,0,0,0-1.043-1.325s-.065.666-.065.886a2.91,2.91,0,0,0,1.058,2.069,2.956,2.956,0,0,1-.564-1.792s.3.482.449.749a4.585,4.585,0,0,1,.5,1.387l.012.646-.177-.207a.329.329,0,0,0,.012-.282s-.17-.152-.324-.06-.152.227-.057.377.265.045.265.045a3.593,3.593,0,0,1,.274.566,7.684,7.684,0,0,1,0,.9,6.523,6.523,0,0,0-.377-1.183,7.936,7.936,0,0,0-.946-1.215s-.03.749-.03.961a2.186,2.186,0,0,0,1,2,3.244,3.244,0,0,1-.6-1.886s.222.359.374.614a6.7,6.7,0,0,1,.584,1.377v.793l-.272-.25a.482.482,0,0,0,0-.329s-.18-.177-.347-.112-.14.264-.077.392.249.11.249.11a3.09,3.09,0,0,1,.429.626c.027.1,0,.911,0,.911a6.787,6.787,0,0,0-.442-1.155,11.728,11.728,0,0,0-.923-1.315,6.041,6.041,0,0,0-.132.816,2.867,2.867,0,0,0,1.12,2.306,3.935,3.935,0,0,1-.749-2.086s.334.5.5.749a9.484,9.484,0,0,1,.641,1.38V36.6l-.269-.25a.484.484,0,0,0,0-.324s-.182-.18-.347-.117-.14.267-.08.394.249.11.249.11a3.056,3.056,0,0,1,.432.624c.027.1,0,.913,0,.913a6.315,6.315,0,0,0-.419-1.115,11.75,11.75,0,0,0-.963-1.352s-.065.556-.065.774a2.833,2.833,0,0,0,1.058,2.348,3.96,3.96,0,0,1-.749-2.086s.332.5.487.749a9.756,9.756,0,0,1,.646,1.365v.908l-.272-.25a.469.469,0,0,0,0-.324s-.18-.18-.347-.117-.14.265-.077.394.25.112.25.112a3.008,3.008,0,0,1,.429.624c.027.1,0,1,0,1a6.4,6.4,0,0,0-.419-1.13,15.149,15.149,0,0,0-.923-1.417,6.385,6.385,0,0,0-.132.816,2.881,2.881,0,0,0,1.12,2.311,3.94,3.94,0,0,1-.749-2.086s.332.5.5.749a8.482,8.482,0,0,1,.646,1.442,4.127,4.127,0,0,1-.217,1,.346.346,0,0,1-.135-.5.22.22,0,0,0-.05-.225.25.25,0,0,0-.329-.1H342.7a.287.287,0,0,0-.152.352c.022.122.327.185.327.185a1.351,1.351,0,0,1,.147.764c-.085.559-1.125.831-1.125.831l-.25.873a2.81,2.81,0,0,0,1.789-1.767,6.352,6.352,0,0,0,.691-.6s.192-.082.232-.2.12-.279-.04-.359-.274,0-.389.117a.317.317,0,0,0-.082.282s.082.16-.277.364c0,0,.08-.524.122-.926a2.82,2.82,0,0,0,1.18-.966,5.176,5.176,0,0,0,.352-2.226s-1.337,1.265-1.248,2.146a4.665,4.665,0,0,1,.452-.749c.16-.162.472-.424.472-.424a4.286,4.286,0,0,1-.422,1.1,3.17,3.17,0,0,1-.749.861s-.017-1.422.022-1.527a3.36,3.36,0,0,1,.419-.551.249.249,0,0,0,.25-.08c.082-.122.122-.319-.037-.4s-.352.082-.352.082a.469.469,0,0,0-.022.319l-.292.217V38.8a2.687,2.687,0,0,0,1.14-.941,5.139,5.139,0,0,0,.352-2.246s-1.337,1.265-1.248,2.151a4.653,4.653,0,0,1,.454-.749c.16-.157.472-.417.472-.417a4.534,4.534,0,0,1-.409,1.08,3.2,3.2,0,0,1-.749.861s-.017-1.427.022-1.527a2.936,2.936,0,0,1,.429-.561.249.249,0,0,0,.249-.082c.08-.12.12-.322-.04-.4s-.349.08-.349.08a.462.462,0,0,0-.025.322l-.292.22v-.749a2.829,2.829,0,0,0,1.143-.968,5.155,5.155,0,0,0,.349-2.231s-1.335,1.265-1.248,2.151a4.494,4.494,0,0,1,.454-.749c.16-.16.472-.422.472-.422a4.416,4.416,0,0,1-.417,1.08,3.159,3.159,0,0,1-.749.861s-.017-1.427.022-1.527a3,3,0,0,1,.429-.559s.177.04.249-.082.12-.327-.04-.4a.4.4,0,0,0-.349.075.462.462,0,0,0-.022.327l-.289.22v-.584a2.793,2.793,0,0,0,1.158-.958,5.212,5.212,0,0,0,.349-2.233s-1.335,1.265-1.248,2.151a4.848,4.848,0,0,1,.454-.749c.16-.155.472-.414.472-.414a4.413,4.413,0,0,1-.437,1.065,3.159,3.159,0,0,1-.749.861s-.017-1.427.022-1.527a3,3,0,0,1,.422-.556.25.25,0,0,0,.25-.082c.08-.12.12-.322-.04-.4s-.349.082-.349.082a.447.447,0,0,0-.022.322l-.294.22V30.26A2.625,2.625,0,0,0,344.864,29.312Zm-2.655,15.017c-.12.08-.137.057-.16-.067s0-.1.12-.115a3.537,3.537,0,0,0,.574-.364,1.555,1.555,0,0,1-.534.546Z" transform="translate(-323.676 -20.69)"/><path class="b" d="M301.57,82v2.151h7.279V82Zm.357,1.946h-.1V82.167h1.462v.1h-1.36Zm.25-.16h-.1V82.432h1.036v.1h-.933v1.248Zm.946-.394a.14.14,0,0,0,.132.067v.082a.225.225,0,0,1-.207-.11.1.1,0,0,1,.015-.125.21.21,0,0,1,.227-.022l-.037.072a.127.127,0,0,0-.132,0v.025Zm.195-.182c-.03-.087-.125-.127-.215-.17h0a.332.332,0,0,1-.25.207.467.467,0,0,1-.065.287,1.071,1.071,0,0,1,.5.09l-.025.077a.973.973,0,0,0-.512-.08v-.032a.6.6,0,0,1-.289.135l-.072.02-.022-.077a.285.285,0,0,0,.075-.022.442.442,0,0,0,.235-.147.377.377,0,0,0,.047-.265.15.15,0,0,0-.075-.1.16.16,0,0,0-.175,0,.3.3,0,0,0-.047.342l-.065.047a.372.372,0,0,1,.072-.444.235.235,0,0,1,.27-.025.225.225,0,0,1,.1.115c.095-.025.207-.085.2-.187v-.065l.06.027.057.027a.389.389,0,0,1,.25.217Zm-.789.207a.227.227,0,0,1,.047-.147l.062.052a.132.132,0,0,0-.03.095Zm1.09.549h-.1V82.182h2.643v.1H303.6v1.682Zm.232-.162h-.1V82.452h2.213v.1h-2.113V83.8Zm.749-.312a.177.177,0,0,0-.2-.092c-.03,0-.042.027-.065.062a.187.187,0,0,1-.107.092l-.02-.077c.025,0,.04-.027.06-.06a.18.18,0,0,1,.12-.1.25.25,0,0,1,.282.14Zm.958,0-.077.017a.217.217,0,0,1,0-.132.649.649,0,0,1-.721-.165.1.1,0,0,0-.077-.035h0c-.017.085.1.182.217.23l-.027.075c-.147-.057-.294-.182-.27-.322a.1.1,0,0,1,.067-.075.175.175,0,0,1,.155.06.611.611,0,0,0,.8.062l.045.065c-.1.072-.137.135-.122.2Zm.524-.05a.5.5,0,0,1-.1-.042.229.229,0,0,0-.09-.032c-.042,0-.065.042-.1.11l-.022.042-.065-.04c0-.015.015-.027.02-.04.035-.067.08-.155.175-.155a.25.25,0,0,1,.125.042.316.316,0,0,0,.08.032Zm.087-.227c-.052,0-.215,0-.25-.11v-.012c-.02-.07-.035-.127-.09-.16a.222.222,0,0,0-.145,0,.441.441,0,0,0-.122.077c-.03.022-.06.045-.092.065a.694.694,0,0,1-.709-.122.21.21,0,0,0-.16-.035.19.19,0,0,0-.085.075.332.332,0,0,1-.085.082.287.287,0,0,1-.1.02.185.185,0,0,0-.082,0c-.025.015-.027.045-.03.087a.17.17,0,0,1-.042.12l-.052.04-.05.037c-.025.017-.017.082-.012.112h-.08c0-.055-.015-.142.045-.187l.052-.04.05-.035c.012,0,0-.035.012-.065a.165.165,0,0,1,.065-.147.212.212,0,0,1,.122-.03.187.187,0,0,0,.065,0,.249.249,0,0,0,.062-.065.262.262,0,0,1,.125-.1.309.309,0,0,1,.225.045.634.634,0,0,0,.629.122l.082-.06a.476.476,0,0,1,.145-.087.3.3,0,0,1,.2,0,.287.287,0,0,1,.13.21h0c0,.02.032.05.165.05v.082h0Zm2.528.749h-2.323V82.217H308.7Z" transform="translate(-293.598 -65.531)"/></g></svg>